<?xml version="1.0" encoding="UTF-8" standalone="no"?>
<!DOCTYPE svg PUBLIC "-//W3C//DTD SVG 1.1//EN"
 "http://www.w3.org/Graphics/SVG/1.1/DTD/svg11.dtd">
<!-- Generated by graphviz version 7.1.0 (0)
 -->
<!-- Title: G Pages: 1 -->
<svg width="77pt" height="131pt"
 viewBox="0.00 0.00 77.00 131.00" xmlns="http://www.w3.org/2000/svg" xmlns:xlink="http://www.w3.org/1999/xlink">
<g id="graph0" class="graph" transform="scale(1 1) rotate(0) translate(4 127)">
<title>G</title>
<polygon fill="white" stroke="none" points="-4,4 -4,-127 73,-127 73,4 -4,4"/>
<!-- %3 -->
<g id="node1" class="node">
<title>%3</title>
<path fill="white" stroke="grey" stroke-width="2" d="M42,-123C42,-123 12,-123 12,-123 6,-123 0,-117 0,-111 0,-111 0,-99 0,-99 0,-93 6,-87 12,-87 12,-87 42,-87 42,-87 48,-87 54,-93 54,-99 54,-99 54,-111 54,-111 54,-117 48,-123 42,-123"/>
<text text-anchor="middle" x="27" y="-101.3" font-family="Courier,monospace" font-size="14.00">ded</text>
</g>
<!-- %5 -->
<g id="node2" class="node">
<title>%5</title>
<path fill="white" stroke="grey" stroke-width="2" d="M42,-36C42,-36 12,-36 12,-36 6,-36 0,-30 0,-24 0,-24 0,-12 0,-12 0,-6 6,0 12,0 12,0 42,0 42,0 48,0 54,-6 54,-12 54,-12 54,-24 54,-24 54,-30 48,-36 42,-36"/>
<text text-anchor="middle" x="27" y="-14.3" font-family="Courier,monospace" font-size="14.00">bed</text>
</g>
<!-- %3&#45;&gt;%5 -->
<g id="edge1" class="edge">
<title>%5&#45;&gt;%5</title>
<path fill="none" stroke="green" d="M27,-86.39C27,-75.41 27,-61 27,-48.33"/>
<polygon fill="green" stroke="green" points="30.5,-48.4 27,-38.4 23.5,-48.4 30.5,-48.4"/>
<text text-anchor="middle" x="48" y="-57.8" font-family="Courier New" font-size="14.00"> move</text>
</g>
</g>
</svg>
