<?xml version="1.0" encoding="UTF-8" standalone="no"?>
<!DOCTYPE svg PUBLIC "-//W3C//DTD SVG 1.1//EN"
 "http://www.w3.org/Graphics/SVG/1.1/DTD/svg11.dtd">
<!-- Generated by graphviz version 7.1.0 (0)
 -->
<!-- Title: G Pages: 1 -->
<svg width="214pt" height="576pt"
 viewBox="0.00 0.00 214.00 576.00" xmlns="http://www.w3.org/2000/svg" xmlns:xlink="http://www.w3.org/1999/xlink">
<g id="graph0" class="graph" transform="scale(1 1) rotate(0) translate(4 572)">
<title>G</title>
<polygon fill="white" stroke="none" points="-4,4 -4,-572 210,-572 210,4 -4,4"/>
<g id="clust1" class="cluster">
<title>cluster_1</title>
<path fill="none" stroke="black" d="M20,-8C20,-8 186,-8 186,-8 192,-8 198,-14 198,-20 198,-20 198,-548 198,-548 198,-554 192,-560 186,-560 186,-560 20,-560 20,-560 14,-560 8,-554 8,-548 8,-548 8,-20 8,-20 8,-14 14,-8 20,-8"/>
<text text-anchor="middle" x="103" y="-544.8" font-family="Courier New" font-size="14.00">int main(int, char**)</text>
</g>
<g id="clust2" class="cluster">
<title>cluster_2</title>
<path fill="none" stroke="black" d="M49,-290C49,-290 157,-290 157,-290 163,-290 169,-296 169,-302 169,-302 169,-440 169,-440 169,-446 163,-452 157,-452 157,-452 49,-452 49,-452 43,-452 37,-446 37,-440 37,-440 37,-302 37,-302 37,-296 43,-290 49,-290"/>
<text text-anchor="middle" x="103" y="-436.8" font-family="Courier New" font-size="14.00">Int foo(Int&amp;&amp;)</text>
</g>
<g id="clust3" class="cluster">
<title>cluster_3</title>
<path fill="none" stroke="black" d="M44,-95C44,-95 152,-95 152,-95 158,-95 164,-101 164,-107 164,-107 164,-245 164,-245 164,-251 158,-257 152,-257 152,-257 44,-257 44,-257 38,-257 32,-251 32,-245 32,-245 32,-107 32,-107 32,-101 38,-95 44,-95"/>
<text text-anchor="middle" x="98" y="-241.8" font-family="Courier New" font-size="14.00">Int foo(Int&amp;&amp;)</text>
</g>
<!-- %3 -->
<g id="node1" class="node">
<title>%3</title>
<path fill="white" stroke="grey" stroke-width="2" d="M97,-529C97,-529 67,-529 67,-529 61,-529 55,-523 55,-517 55,-517 55,-505 55,-505 55,-499 61,-493 67,-493 67,-493 97,-493 97,-493 103,-493 109,-499 109,-505 109,-505 109,-517 109,-517 109,-523 103,-529 97,-529"/>
<text text-anchor="middle" x="82" y="-507.3" font-family="Courier,monospace" font-size="14.00">ded</text>
</g>
<!-- %7 -->
<g id="node3" class="node">
<title>%7</title>
<polygon fill="none" stroke="grey" stroke-width="2" stroke-dasharray="5,2" points="109,-421 55,-421 55,-385 109,-385 109,-421"/>
<text text-anchor="middle" x="82" y="-399.3" font-family="Courier,monospace" font-size="14.00">param</text>
</g>
<!-- %3&#45;&gt;%7 -->
<g id="edge1" class="edge">
<title>%7&#45;&gt;%7</title>
<path fill="none" stroke="black" stroke-dasharray="5,2" d="M82,-492.02C82,-475.93 82,-452.06 82,-433.23"/>
<polygon fill="black" stroke="black" points="85.5,-433.23 82,-423.23 78.5,-433.23 85.5,-433.23"/>
<text text-anchor="middle" x="94.5" y="-463.8" font-family="Courier New" font-size="14.00"> &amp;&amp;</text>
</g>
<!-- %5 -->
<g id="node2" class="node">
<title>%5</title>
<path fill="white" stroke="grey" stroke-width="2" d="M97,-52C97,-52 67,-52 67,-52 61,-52 55,-46 55,-40 55,-40 55,-28 55,-28 55,-22 61,-16 67,-16 67,-16 97,-16 97,-16 103,-16 109,-22 109,-28 109,-28 109,-40 109,-40 109,-46 103,-52 97,-52"/>
<text text-anchor="middle" x="82" y="-30.3" font-family="Courier,monospace" font-size="14.00">bed</text>
</g>
<!-- %9 -->
<g id="node4" class="node">
<title>%9</title>
<path fill="white" stroke="red" stroke-width="2" d="M97,-334C97,-334 67,-334 67,-334 61,-334 55,-328 55,-322 55,-322 55,-310 55,-310 55,-304 61,-298 67,-298 67,-298 97,-298 97,-298 103,-298 109,-304 109,-310 109,-310 109,-322 109,-322 109,-328 103,-334 97,-334"/>
<text text-anchor="middle" x="82" y="-312.3" font-family="Courier,monospace" font-size="14.00">tmp#3</text>
</g>
<!-- %7&#45;&gt;%9 -->
<g id="edge2" class="edge">
<title>%9&#45;&gt;%9</title>
<path fill="none" stroke="red" d="M82,-384.39C82,-373.41 82,-359 82,-346.33"/>
<polygon fill="red" stroke="red" points="85.5,-346.4 82,-336.4 78.5,-346.4 85.5,-346.4"/>
<text text-anchor="middle" x="103" y="-355.8" font-family="Courier New" font-size="14.00"> copy</text>
</g>
<!-- %11 -->
<g id="node5" class="node">
<title>%11</title>
<polygon fill="none" stroke="grey" stroke-width="2" stroke-dasharray="5,2" points="109,-226 55,-226 55,-190 109,-190 109,-226"/>
<text text-anchor="middle" x="82" y="-204.3" font-family="Courier,monospace" font-size="14.00">param</text>
</g>
<!-- %9&#45;&gt;%11 -->
<g id="edge3" class="edge">
<title>%11&#45;&gt;%11</title>
<path fill="none" stroke="black" stroke-dasharray="5,2" d="M82,-297.02C82,-280.93 82,-257.06 82,-238.23"/>
<polygon fill="black" stroke="black" points="85.5,-238.23 82,-228.23 78.5,-238.23 85.5,-238.23"/>
<text text-anchor="middle" x="94.5" y="-268.8" font-family="Courier New" font-size="14.00"> &amp;&amp;</text>
</g>
<!-- %13 -->
<g id="node6" class="node">
<title>%13</title>
<path fill="white" stroke="red" stroke-width="2" d="M97,-139C97,-139 67,-139 67,-139 61,-139 55,-133 55,-127 55,-127 55,-115 55,-115 55,-109 61,-103 67,-103 67,-103 97,-103 97,-103 103,-103 109,-109 109,-115 109,-115 109,-127 109,-127 109,-133 103,-139 97,-139"/>
<text text-anchor="middle" x="82" y="-117.3" font-family="Courier,monospace" font-size="14.00">tmp#5</text>
</g>
<!-- %11&#45;&gt;%13 -->
<g id="edge4" class="edge">
<title>%13&#45;&gt;%13</title>
<path fill="none" stroke="red" d="M82,-189.39C82,-178.41 82,-164 82,-151.33"/>
<polygon fill="red" stroke="red" points="85.5,-151.4 82,-141.4 78.5,-151.4 85.5,-151.4"/>
<text text-anchor="middle" x="103" y="-160.8" font-family="Courier New" font-size="14.00"> copy</text>
</g>
<!-- %13&#45;&gt;%5 -->
<g id="edge5" class="edge">
<title>%5&#45;&gt;%5</title>
<path fill="none" stroke="green" d="M82,-102.39C82,-91.41 82,-77 82,-64.33"/>
<polygon fill="green" stroke="green" points="85.5,-64.4 82,-54.4 78.5,-64.4 85.5,-64.4"/>
<text text-anchor="middle" x="103" y="-73.8" font-family="Courier New" font-size="14.00"> move</text>
</g>
</g>
</svg>
