<?xml version="1.0" encoding="UTF-8" standalone="no"?>
<!DOCTYPE svg PUBLIC "-//W3C//DTD SVG 1.1//EN"
 "http://www.w3.org/Graphics/SVG/1.1/DTD/svg11.dtd">
<!-- Generated by graphviz version 7.1.0 (0)
 -->
<!-- Title: G Pages: 1 -->
<svg width="214pt" height="497pt"
 viewBox="0.00 0.00 214.00 497.00" xmlns="http://www.w3.org/2000/svg" xmlns:xlink="http://www.w3.org/1999/xlink">
<g id="graph0" class="graph" transform="scale(1 1) rotate(0) translate(4 493)">
<title>G</title>
<polygon fill="white" stroke="none" points="-4,4 -4,-493 210,-493 210,4 -4,4"/>
<g id="clust1" class="cluster">
<title>cluster_1</title>
<path fill="none" stroke="black" d="M20,-8C20,-8 186,-8 186,-8 192,-8 198,-14 198,-20 198,-20 198,-469 198,-469 198,-475 192,-481 186,-481 186,-481 20,-481 20,-481 14,-481 8,-475 8,-469 8,-469 8,-20 8,-20 8,-14 14,-8 20,-8"/>
<text text-anchor="middle" x="103" y="-465.8" font-family="Courier New" font-size="14.00">int main(int, char**)</text>
</g>
<g id="clust2" class="cluster">
<title>cluster_2</title>
<path fill="none" stroke="black" d="M28,-211C28,-211 177,-211 177,-211 183,-211 189,-217 189,-223 189,-223 189,-361 189,-361 189,-367 183,-373 177,-373 177,-373 28,-373 28,-373 22,-373 16,-367 16,-361 16,-361 16,-223 16,-223 16,-217 22,-211 28,-211"/>
<text text-anchor="middle" x="102.5" y="-357.8" font-family="Courier New" font-size="14.00">Int foo(const Int&amp;)</text>
</g>
<g id="clust3" class="cluster">
<title>cluster_3</title>
<path fill="none" stroke="black" d="M28,-16C28,-16 177,-16 177,-16 183,-16 189,-22 189,-28 189,-28 189,-166 189,-166 189,-172 183,-178 177,-178 177,-178 28,-178 28,-178 22,-178 16,-172 16,-166 16,-166 16,-28 16,-28 16,-22 22,-16 28,-16"/>
<text text-anchor="middle" x="102.5" y="-162.8" font-family="Courier New" font-size="14.00">Int foo(const Int&amp;)</text>
</g>
<!-- %3 -->
<g id="node1" class="node">
<title>%3</title>
<path fill="white" stroke="grey" stroke-width="2" d="M66,-450C66,-450 36,-450 36,-450 30,-450 24,-444 24,-438 24,-438 24,-426 24,-426 24,-420 30,-414 36,-414 36,-414 66,-414 66,-414 72,-414 78,-420 78,-426 78,-426 78,-438 78,-438 78,-444 72,-450 66,-450"/>
<text text-anchor="middle" x="51" y="-428.3" font-family="Courier,monospace" font-size="14.00">ded</text>
</g>
<!-- %5 -->
<g id="node2" class="node">
<title>%5</title>
<polygon fill="none" stroke="grey" stroke-width="2" stroke-dasharray="5,2" points="78,-342 24,-342 24,-306 78,-306 78,-342"/>
<text text-anchor="middle" x="51" y="-320.3" font-family="Courier,monospace" font-size="14.00">param</text>
</g>
<!-- %3&#45;&gt;%5 -->
<g id="edge1" class="edge">
<title>%5&#45;&gt;%5</title>
<path fill="none" stroke="black" stroke-dasharray="5,2" d="M51,-413.02C51,-396.93 51,-373.06 51,-354.23"/>
<polygon fill="black" stroke="black" points="54.5,-354.23 51,-344.23 47.5,-354.23 54.5,-354.23"/>
<text text-anchor="middle" x="63.5" y="-384.8" font-family="Courier New" font-size="14.00"> &amp;&amp;</text>
</g>
<!-- %7 -->
<g id="node3" class="node">
<title>%7</title>
<path fill="white" stroke="red" stroke-width="2" d="M66,-255C66,-255 36,-255 36,-255 30,-255 24,-249 24,-243 24,-243 24,-231 24,-231 24,-225 30,-219 36,-219 36,-219 66,-219 66,-219 72,-219 78,-225 78,-231 78,-231 78,-243 78,-243 78,-249 72,-255 66,-255"/>
<text text-anchor="middle" x="51" y="-233.3" font-family="Courier,monospace" font-size="14.00">tmp#2</text>
</g>
<!-- %5&#45;&gt;%7 -->
<g id="edge2" class="edge">
<title>%7&#45;&gt;%7</title>
<path fill="none" stroke="red" d="M51,-305.39C51,-294.41 51,-280 51,-267.33"/>
<polygon fill="red" stroke="red" points="54.5,-267.4 51,-257.4 47.5,-267.4 54.5,-267.4"/>
<text text-anchor="middle" x="72" y="-276.8" font-family="Courier New" font-size="14.00"> copy</text>
</g>
<!-- %9 -->
<g id="node4" class="node">
<title>%9</title>
<polygon fill="none" stroke="grey" stroke-width="2" stroke-dasharray="5,2" points="78,-147 24,-147 24,-111 78,-111 78,-147"/>
<text text-anchor="middle" x="51" y="-125.3" font-family="Courier,monospace" font-size="14.00">param</text>
</g>
<!-- %7&#45;&gt;%9 -->
<g id="edge3" class="edge">
<title>%9&#45;&gt;%9</title>
<path fill="none" stroke="black" stroke-dasharray="5,2" d="M51,-218.02C51,-201.93 51,-178.06 51,-159.23"/>
<polygon fill="black" stroke="black" points="54.5,-159.23 51,-149.23 47.5,-159.23 54.5,-159.23"/>
<text text-anchor="middle" x="63.5" y="-189.8" font-family="Courier New" font-size="14.00"> &amp;&amp;</text>
</g>
<!-- %11 -->
<g id="node5" class="node">
<title>%11</title>
<path fill="white" stroke="grey" stroke-width="2" d="M66,-60C66,-60 36,-60 36,-60 30,-60 24,-54 24,-48 24,-48 24,-36 24,-36 24,-30 30,-24 36,-24 36,-24 66,-24 66,-24 72,-24 78,-30 78,-36 78,-36 78,-48 78,-48 78,-54 72,-60 66,-60"/>
<text text-anchor="middle" x="51" y="-38.3" font-family="Courier,monospace" font-size="14.00">bed</text>
</g>
<!-- %9&#45;&gt;%11 -->
<g id="edge4" class="edge">
<title>%11&#45;&gt;%11</title>
<path fill="none" stroke="red" d="M51,-110.39C51,-99.41 51,-85 51,-72.33"/>
<polygon fill="red" stroke="red" points="54.5,-72.4 51,-62.4 47.5,-72.4 54.5,-72.4"/>
<text text-anchor="middle" x="72" y="-81.8" font-family="Courier New" font-size="14.00"> copy</text>
</g>
</g>
</svg>
